<?xml version="1.0" standalone="no"?>
<!DOCTYPE svg PUBLIC "-//W3C//DTD SVG 20010904//EN"
 "http://www.w3.org/TR/2001/REC-SVG-20010904/DTD/svg10.dtd">
<svg version="1.0" xmlns="http://www.w3.org/2000/svg"
 width="800.000000pt" height="694.000000pt" viewBox="0 0 800.000000 694.000000"
 preserveAspectRatio="xMidYMid meet">

<g transform="translate(0.000000,694.000000) scale(0.100000,-0.100000)"
fill="#000000" stroke="none">
<path d="M3183 6095 c-51 -44 -79 -102 -88 -182 -6 -57 -4 -67 19 -108 15 -24
42 -56 62 -71 l35 -27 -58 -34 c-32 -19 -130 -70 -218 -113 -88 -44 -166 -85
-174 -91 -10 -9 -12 -30 -7 -93 l7 -81 -28 -17 c-16 -9 -37 -26 -47 -37 -18
-20 -18 -23 8 -133 14 -62 26 -141 26 -175 0 -34 8 -97 17 -139 16 -73 19 -78
63 -110 l47 -34 8 -127 c4 -71 10 -184 14 -253 l6 -124 145 -54 c80 -30 152
-57 160 -60 8 -3 -41 -9 -110 -13 -307 -16 -599 -96 -770 -212 -76 -51 -191
-159 -238 -222 -55 -74 -81 -129 -102 -220 l-17 -70 -12 54 c-14 66 -25 81
-60 81 -80 0 -134 -181 -81 -268 21 -35 106 -82 147 -82 16 0 31 -13 48 -40
14 -23 42 -58 61 -80 l35 -39 -12 -61 c-18 -90 -7 -209 25 -274 31 -64 109
-139 174 -169 40 -19 63 -22 160 -21 61 1 123 5 136 8 20 5 25 1 31 -22 17
-68 97 -129 152 -116 50 13 111 44 117 60 11 28 6 103 -6 111 -7 4 -26 8 -42
8 -35 0 -56 27 -40 53 15 24 84 47 118 38 27 -7 27 -8 21 -60 -6 -42 -4 -56
10 -69 49 -49 165 24 165 104 0 61 -52 154 -103 184 -18 11 -44 15 -80 13
l-52 -3 3 35 c10 139 6 196 -15 242 -32 71 -103 141 -176 174 -56 26 -72 29
-169 29 -98 0 -108 2 -131 23 l-25 24 25 55 c31 68 27 110 -18 166 l-33 40 35
29 c125 106 365 182 611 195 l127 6 5 -24 c5 -23 26 -338 26 -393 0 -19 -11
-33 -40 -52 -22 -15 -40 -33 -40 -40 0 -18 19 -18 39 0 38 34 44 25 57 -84 7
-58 13 -141 13 -185 1 -44 8 -123 16 -176 8 -53 15 -158 16 -235 1 -121 -2
-145 -19 -184 -12 -25 -23 -52 -25 -60 -3 -9 -31 -24 -63 -34 -33 -10 -81 -30
-109 -44 -27 -14 -108 -49 -180 -77 -71 -29 -175 -71 -229 -94 -55 -23 -103
-41 -108 -41 -4 0 -8 15 -8 33 0 31 -17 89 -33 115 -5 6 -16 12 -26 12 -10 0
-47 13 -82 29 -79 35 -323 105 -365 104 -17 -1 -51 -13 -75 -28 -24 -15 -55
-31 -69 -35 -17 -4 -26 -14 -28 -31 -2 -14 29 -112 69 -219 39 -107 77 -225
85 -262 8 -37 22 -89 32 -115 16 -42 23 -50 67 -67 97 -37 151 -54 205 -65 30
-5 96 -21 145 -35 103 -28 109 -27 166 44 18 22 37 40 43 40 6 0 45 13 86 29
78 31 80 30 94 -16 7 -21 5 -21 -49 -16 -44 5 -55 3 -55 -9 0 -10 18 -17 62
-24 47 -7 64 -13 66 -26 2 -11 -1 -16 -10 -13 -7 2 -49 9 -93 15 -44 5 -90 13
-102 16 -17 5 -23 2 -23 -9 0 -19 41 -31 159 -46 80 -10 100 -20 101 -48 0
-19 -30 -16 -140 13 -90 25 -130 27 -130 7 0 -7 179 -53 268 -69 16 -3 22 -11
22 -30 0 -26 -2 -26 -42 -20 -24 4 -90 21 -148 37 -141 41 -307 65 -312 44 -2
-5 31 -16 72 -23 41 -8 111 -23 155 -34 44 -11 121 -29 170 -40 100 -22 117
-29 123 -47 5 -14 -9 -12 -169 20 -133 26 -239 35 -239 20 0 -15 9 -18 120
-35 215 -33 296 -50 311 -63 9 -8 38 -18 65 -23 27 -5 117 -32 199 -59 83 -28
163 -53 178 -56 25 -5 27 -8 16 -21 -17 -21 -2 -30 76 -43 84 -15 115 -14 115
3 0 10 -19 16 -61 21 -33 4 -73 11 -87 15 -26 8 -26 8 -4 9 13 1 36 8 50 17
24 14 37 14 127 0 96 -14 138 -9 99 12 -11 6 -41 13 -69 17 -91 12 -104 16
-99 30 7 16 55 26 70 14 6 -4 53 -13 105 -19 52 -6 109 -15 126 -21 38 -12 60
-4 43 16 -10 12 -76 27 -180 41 l-55 7 39 16 c39 17 121 14 219 -8 23 -5 40
-5 43 1 12 19 -16 32 -76 36 -33 2 -63 8 -65 12 -3 5 20 16 51 25 42 12 63 14
85 6 16 -5 57 -13 90 -17 50 -6 61 -4 57 7 -2 7 -24 17 -49 22 -73 13 -77 17
-46 33 22 12 38 13 84 4 78 -14 103 -13 103 5 0 10 -10 15 -27 16 -16 0 -37 4
-47 8 -17 6 -16 9 11 20 22 9 45 9 94 2 86 -14 109 -14 109 3 0 10 -19 16 -62
21 -57 7 -60 9 -42 22 15 11 36 13 98 8 43 -4 85 -9 92 -12 8 -3 14 1 14 11 0
18 -6 21 -65 32 l-40 7 29 12 c19 8 41 9 65 4 57 -13 133 -11 129 4 -3 6 -25
13 -51 15 -55 4 -60 13 -14 30 31 11 114 5 160 -13 13 -5 17 -2 17 13 0 20
-24 32 -69 32 -19 0 -22 3 -13 12 10 10 132 15 173 6 8 -2 14 4 14 12 0 11
-13 16 -47 18 -34 2 -48 7 -48 18 0 16 29 18 80 5 19 -5 88 -11 153 -14 90 -3
117 -1 117 8 0 7 -17 17 -37 22 -35 8 -36 10 -18 20 14 8 37 8 76 0 58 -10 95
-5 84 12 -3 5 -30 13 -60 16 -53 7 -63 16 -47 42 6 10 25 9 85 -3 75 -15 121
-13 101 5 -5 5 -44 16 -88 24 -43 9 -80 18 -82 20 -2 1 -1 13 3 26 4 17 11 21
27 17 74 -21 199 -45 207 -41 20 13 7 24 -43 35 -170 37 -189 43 -199 62 -6
11 -8 23 -4 26 3 3 66 -9 140 -28 123 -32 164 -35 139 -10 -5 5 -78 26 -161
47 -84 21 -153 41 -153 45 0 3 22 14 49 23 74 24 78 33 85 170 6 108 -5 561
-21 834 -5 100 -5 105 17 121 22 17 26 16 88 -12 156 -71 350 -93 552 -64 478
70 702 250 766 617 16 91 15 240 -2 342 -5 28 -3 37 8 37 7 0 29 14 47 31 30
27 37 29 58 20 19 -9 29 -8 45 3 12 9 32 13 47 10 18 -4 38 3 66 22 l40 27 60
-21 c59 -20 409 -148 650 -237 66 -25 151 -52 189 -62 61 -15 72 -15 95 -2 34
19 38 51 11 89 -30 42 -228 138 -405 196 -77 25 -229 82 -337 127 l-198 82 0
37 c0 33 -5 41 -39 62 -22 14 -51 37 -65 51 -14 14 -32 25 -40 25 -21 0 -27
14 -41 96 -7 40 -21 84 -32 98 -33 46 -115 66 -335 82 -109 8 -128 1 -128 -47
0 -15 -4 -31 -10 -34 -11 -7 -198 52 -281 89 -94 42 -162 13 -214 -89 -40 -81
-46 -166 -15 -230 28 -57 67 -77 220 -110 58 -13 121 -30 140 -38 35 -15 34
-15 -59 -16 l-94 -1 -33 -36 c-61 -64 -58 -105 12 -182 29 -33 69 -63 111 -84
57 -28 79 -33 159 -36 80 -4 94 -7 94 -21 0 -9 -5 -22 -12 -29 -9 -9 -9 -15 0
-24 27 -27 2 -169 -48 -267 -79 -157 -239 -244 -475 -258 -167 -10 -277 31
-496 183 l-109 75 0 69 c0 59 -4 73 -25 98 -27 33 -43 38 -151 51 -101 13
-207 32 -222 40 -9 5 25 35 100 88 62 44 155 116 205 158 l93 78 -6 153 -7
152 31 16 c16 8 40 32 53 53 21 34 24 57 38 303 17 299 15 309 -47 366 l-33
32 10 127 c6 83 7 134 0 146 -5 10 -26 23 -47 28 -31 8 -226 58 -400 103 -23
6 -45 15 -48 20 -10 16 18 83 49 116 27 28 78 52 114 52 6 0 -2 -13 -18 -29
-16 -16 -29 -38 -29 -48 0 -67 96 -88 151 -34 30 30 36 59 19 90 -8 16 -4 19
32 24 23 3 63 3 90 0 39 -5 48 -3 48 10 0 21 -65 31 -143 21 -34 -5 -90 -7
-124 -5 -84 4 -144 -24 -184 -87 -15 -24 -31 -57 -34 -73 -4 -16 -10 -29 -13
-29 -19 0 -270 59 -437 102 -519 135 -554 142 -596 115 -13 -9 -53 -27 -89
-40 -36 -13 -89 -36 -118 -51 -28 -14 -56 -26 -61 -26 -25 0 -111 96 -111 124
0 2 14 -2 30 -11 58 -28 130 12 130 74 0 56 -66 79 -142 48 -34 -14 1 53 53
99 27 24 49 49 49 55 0 21 -26 11 -67 -24z m65 -157 c21 -21 13 -47 -18 -63
-36 -18 -65 -12 -81 16 -17 32 8 52 72 58 8 0 20 -4 27 -11z m724 -222 c128
-35 311 -80 407 -101 125 -28 174 -43 178 -54 21 -66 48 -121 59 -121 18 0 18
5 -6 68 -11 28 -17 52 -14 52 5 0 220 -55 351 -90 l63 -16 -93 -48 c-136 -71
-200 -111 -317 -196 -58 -42 -120 -85 -138 -96 l-32 -18 -93 32 c-175 61 -669
193 -870 233 -111 22 -278 51 -372 64 -93 14 -185 27 -204 31 -33 5 -29 8 105
78 76 41 188 101 249 135 60 33 141 73 180 88 38 14 85 34 103 43 31 17 37 17
121 -1 49 -11 194 -48 323 -83z m868 34 c21 -39 -24 -78 -77 -68 -29 5 -28 43
3 67 34 26 60 27 74 1z m-1861 -355 c357 -52 622 -105 876 -176 296 -83 479
-138 518 -154 l37 -15 0 -268 c0 -147 5 -295 10 -330 12 -74 18 -707 7 -718
-4 -4 -29 0 -55 10 -91 35 -218 75 -317 99 -55 13 -208 54 -340 91 -132 37
-303 84 -380 106 -77 21 -201 61 -275 88 l-135 48 -2 45 c-1 24 -7 103 -13
174 -5 72 -10 162 -11 200 -1 39 -6 80 -10 92 -12 34 -37 212 -54 393 -9 91
-20 192 -25 225 -10 63 -13 115 -6 115 2 0 81 -11 175 -25z m2055 -22 c-2 -21
-6 -68 -10 -105 l-6 -68 -31 0 c-18 0 -48 -11 -68 -24 -19 -13 -90 -52 -157
-86 -67 -34 -127 -70 -132 -80 -6 -11 -10 -149 -10 -345 l0 -326 26 -26 c26
-26 49 -27 109 -8 11 3 -6 -8 -37 -25 -32 -17 -58 -35 -58 -40 0 -20 43 -9
104 25 74 41 207 97 214 90 8 -7 8 -7 -118 -70 -63 -32 -125 -62 -137 -69 -26
-13 -31 -36 -7 -36 9 0 62 24 118 54 117 64 156 80 156 66 0 -6 -58 -39 -130
-75 -71 -36 -130 -69 -130 -74 0 -25 27 -17 136 39 64 33 118 60 120 60 2 0 4
-24 4 -52 l0 -53 -83 -71 c-45 -38 -127 -101 -182 -139 -55 -37 -125 -89 -155
-114 -30 -26 -62 -52 -70 -58 -14 -10 -15 4 -12 125 2 75 -1 227 -7 337 -18
322 -33 786 -27 809 3 11 29 36 58 55 29 19 96 66 150 104 79 58 345 213 370
216 3 1 4 -16 2 -36z m-2249 -289 c9 -87 20 -186 25 -219 22 -144 22 -149 6
-135 -24 19 -37 75 -46 200 -5 64 -18 151 -30 194 l-22 78 23 24 c12 13 24 22
26 20 2 -1 10 -75 18 -162z m2291 44 c13 -13 1 -21 -98 -68 -62 -29 -135 -63
-161 -76 -58 -29 -59 -29 -97 -6 l-30 19 113 58 c61 32 123 66 137 77 30 22
112 20 136 -4z m33 -125 c0 -43 -6 -164 -13 -269 -13 -215 -18 -229 -88 -262
-250 -116 -298 -134 -298 -113 0 51 32 440 41 494 l11 69 107 50 c58 27 133
63 166 78 33 16 63 29 68 29 4 1 7 -34 6 -76z m-390 -66 c8 -11 9 -27 2 -58
-6 -24 -15 -114 -21 -199 -26 -344 -27 -345 -29 -22 -1 300 0 312 17 303 10
-5 24 -16 31 -24z m1119 -278 c29 -11 52 -65 52 -122 0 -81 -84 -167 -163
-167 -34 0 -40 4 -53 35 -34 82 1 214 68 255 32 19 42 19 96 -1z m470 -74 c54
-46 66 -80 60 -168 -6 -93 -49 -179 -129 -258 -90 -89 -224 -145 -302 -125
-14 3 -49 24 -77 47 l-52 41 26 26 26 26 29 -34 28 -34 94 0 c64 0 105 6 129
16 83 38 151 155 158 269 5 79 -12 118 -64 152 -38 24 -53 59 -35 81 17 20 57
5 109 -39z m154 41 c102 -17 106 -19 123 -60 21 -49 30 -243 15 -307 -19 -85
-75 -194 -117 -228 -44 -36 -49 -37 -56 -11 -4 17 -14 20 -61 20 -57 0 -147
-29 -178 -57 -10 -9 -18 -25 -18 -36 0 -18 -6 -19 -87 -15 -65 3 -99 10 -130
26 -24 13 -43 24 -43 25 0 2 26 1 58 -1 42 -3 71 2 110 17 200 79 342 263 342
443 0 70 -19 121 -62 166 l-32 32 25 0 c13 0 63 -6 111 -14z m-353 -62 c40
-17 131 -82 131 -94 0 -5 -24 2 -54 15 -30 13 -78 31 -107 39 -30 8 -65 18
-78 22 -19 6 -22 4 -20 -11 3 -13 31 -27 99 -50 112 -38 166 -60 173 -72 7
-11 -12 -103 -21 -103 -8 0 -191 56 -247 76 -23 8 -43 10 -48 5 -15 -15 1 -30
46 -42 50 -14 231 -71 235 -75 2 -1 -4 -14 -14 -29 -11 -18 -22 -24 -33 -19
-62 26 -247 84 -301 94 -98 18 -99 18 -54 45 23 13 53 42 68 64 42 60 50 108
30 183 -4 15 5 14 78 -9 46 -14 98 -31 117 -39z m589 -269 c-3 -36 -16 -86
-30 -116 -24 -53 -76 -124 -85 -116 -2 3 8 31 22 62 32 74 55 162 55 214 0 39
1 41 21 30 19 -10 21 -17 17 -74z m77 -44 c-12 -83 -67 -181 -101 -181 -8 0 1
22 21 56 30 49 55 127 55 169 0 9 6 12 16 8 13 -5 15 -15 9 -52z m265 -146
c74 -31 207 -81 296 -110 170 -57 332 -129 314 -140 -5 -3 -10 -15 -10 -26 0
-25 -6 -24 -97 12 -43 17 -130 49 -193 71 -171 59 -544 199 -552 207 -4 3 -2
23 4 43 l11 37 46 -19 c25 -10 107 -44 181 -75z m-945 55 c-11 -5 -45 -9 -75
-9 -30 0 -64 4 -75 9 -13 6 13 9 75 9 62 0 88 -3 75 -9z m-2862 -186 c-41 -34
-56 -64 -32 -64 7 0 31 18 55 40 58 53 93 55 41 2 -20 -21 -37 -43 -37 -50 0
-23 25 -12 63 28 21 23 47 40 59 40 20 0 17 -5 -20 -43 -40 -41 -53 -67 -32
-67 5 0 31 23 58 51 40 42 53 50 72 44 22 -7 21 -8 -16 -46 -29 -30 -35 -42
-26 -51 9 -9 19 -3 44 23 49 50 64 60 82 53 24 -9 20 -18 -29 -53 -41 -29 -59
-61 -36 -61 6 0 36 22 68 49 51 41 62 47 83 39 l25 -9 -45 -39 c-34 -29 -42
-42 -34 -50 9 -9 25 0 63 34 47 42 81 58 81 39 0 -4 -19 -27 -42 -50 -28 -29
-39 -46 -32 -53 7 -7 29 6 66 40 45 40 57 47 62 33 8 -19 10 -16 -31 -37 -18
-9 -33 -23 -33 -31 0 -20 12 -19 53 5 29 17 36 18 52 6 17 -12 17 -16 6 -30
-11 -13 -11 -20 -3 -28 9 -9 17 -6 33 10 11 12 23 21 27 19 4 -2 16 -7 27 -11
20 -7 20 -8 1 -22 -16 -11 -17 -17 -8 -26 9 -9 19 -7 42 10 31 23 56 27 78 13
10 -6 10 -10 -3 -21 -19 -16 -20 -40 0 -40 8 0 15 4 15 10 0 12 53 40 76 40
15 0 13 -5 -9 -28 -24 -25 -27 -42 -7 -42 4 0 34 22 68 49 43 35 67 48 82 44
29 -8 25 -17 -22 -57 -33 -27 -40 -38 -31 -47 9 -9 23 0 61 35 34 32 55 44 66
40 14 -5 11 -12 -20 -41 -28 -25 -34 -37 -26 -45 9 -9 19 -6 39 14 39 36 64
47 95 41 40 -8 69 2 127 42 29 20 57 35 63 33 10 -4 -82 -64 -184 -122 -43
-24 -52 -52 -14 -42 14 3 51 23 83 45 96 64 171 103 190 99 12 -2 -17 -27 -90
-77 -115 -78 -125 -87 -110 -102 7 -7 20 -2 39 14 16 13 56 41 89 62 33 21 76
51 95 66 30 24 42 28 75 23 71 -10 70 -13 -21 -70 -108 -68 -128 -84 -115 -97
6 -6 34 7 78 35 37 25 89 57 116 72 26 15 47 33 47 38 0 11 76 5 88 -6 10 -11
-28 -41 -185 -145 -85 -56 -163 -101 -176 -101 -44 0 -258 69 -320 103 -34 19
-96 42 -137 51 -139 32 -165 39 -279 83 -62 25 -177 58 -255 75 -126 27 -361
104 -438 144 l-28 15 52 44 c29 24 60 44 68 44 8 0 -4 -15 -27 -35z m3165 -37
c8 -32 12 -60 10 -62 -2 -3 -42 -9 -88 -14 -96 -11 -100 -8 -100 52 0 34 3 40
38 54 105 45 123 41 140 -30z m-3360 -4 c-15 -30 -18 -51 -15 -100 l5 -61 -50
-4 -49 -3 -10 40 c-7 26 -8 59 -3 95 9 53 10 55 44 61 19 4 49 7 66 8 l32 1
-20 -37z m63 21 c-22 -16 -22 -20 -16 -100 8 -90 -4 -113 -25 -48 -19 57 16
164 54 164 6 0 0 -7 -13 -16z m-216 -99 c0 -64 -4 -95 -11 -95 -6 0 -25 -3
-41 -6 -24 -5 -33 -1 -47 21 -20 30 -37 128 -25 146 7 11 60 25 104 28 19 1
20 -5 20 -94z m-162 13 c4 -28 15 -68 25 -88 l18 -37 -58 -12 c-33 -7 -65 -14
-73 -18 -19 -7 -52 68 -57 128 l-3 44 60 16 c33 10 65 18 71 18 6 1 14 -22 17
-51z m534 -34 c162 -60 215 -77 333 -100 74 -15 172 -44 239 -71 63 -25 151
-54 195 -64 167 -40 202 -51 236 -73 30 -20 238 -91 322 -110 30 -7 26 20 48
-316 24 -348 30 -416 41 -450 6 -19 17 -183 24 -365 8 -181 19 -354 25 -383 7
-29 9 -56 6 -59 -3 -3 -29 4 -58 16 -29 11 -93 32 -143 46 -49 15 -157 55
-240 89 -82 35 -197 82 -255 105 -58 22 -136 59 -175 82 -92 53 -120 65 -235
94 -52 13 -160 49 -240 79 l-145 55 -6 158 c-4 87 -12 185 -18 218 -6 33 -11
92 -11 130 0 39 -7 125 -15 190 -20 163 -21 155 20 155 34 0 49 -20 25 -35
-14 -9 -13 -68 2 -83 16 -16 60 -15 80 1 25 20 28 43 9 81 -16 30 -16 36 -4
40 28 11 93 6 93 -6 0 -7 7 -85 15 -173 9 -88 15 -218 13 -288 -3 -111 -6
-131 -22 -145 -10 -9 -32 -35 -47 -56 -62 -84 -23 -215 64 -216 34 0 32 23 -1
28 -54 8 -78 90 -46 158 26 54 40 61 68 31 14 -15 42 -29 73 -35 27 -6 99 -31
159 -56 60 -24 197 -74 304 -111 107 -37 222 -78 254 -91 33 -13 63 -21 67
-17 9 9 39 263 39 328 0 45 0 45 34 45 26 0 40 -7 56 -27 l21 -27 -23 -9 c-54
-20 -76 -70 -42 -97 23 -20 66 -1 84 36 13 25 20 29 37 23 36 -13 63 -58 63
-106 0 -52 19 -55 34 -6 13 48 -18 102 -76 133 -29 15 -52 36 -59 52 -15 36
-50 58 -94 58 l-35 0 5 88 c6 115 17 392 16 417 0 32 -45 62 -108 75 -88 17
-86 15 -69 48 8 16 22 34 30 41 14 12 16 9 16 -21 0 -38 15 -58 42 -58 32 0
52 72 26 98 -8 8 -5 14 15 23 34 16 89 4 126 -27 19 -16 32 -21 36 -14 16 25
-67 80 -121 80 -69 0 -203 -76 -204 -115 -1 -33 -16 -34 -120 -11 -118 27
-146 36 -418 135 -106 39 -200 71 -209 71 -14 0 -15 -14 -11 -108 l5 -109 -23
5 c-13 2 -44 -3 -69 -11 -30 -11 -62 -14 -95 -10 l-49 6 -5 71 c-3 39 -10 152
-16 251 -6 99 -13 202 -16 228 l-6 49 30 -16 c17 -9 61 -27 99 -42z m-713 -6
c4 -23 15 -61 26 -85 10 -24 17 -43 16 -43 -2 0 -19 -7 -39 -15 l-35 -14 -46
76 c-26 41 -46 77 -44 78 4 4 101 44 109 44 4 1 9 -18 13 -41z m1365 2 c36
-12 96 -28 134 -36 96 -22 77 -28 -29 -9 -94 17 -136 30 -169 52 -27 18 -11
16 64 -7z m2509 -67 l3 -72 -41 -12 c-31 -10 -52 -10 -95 0 -30 7 -57 16 -59
19 -2 4 -1 32 2 62 l7 55 75 11 c109 17 105 20 108 -63z m1302 29 c-13 -2 -30
4 -39 12 -14 15 -14 18 -1 26 10 6 22 3 38 -13 l24 -22 -22 -3z m-5288 -53
c21 -30 38 -61 38 -70 0 -21 -53 -46 -59 -28 -8 26 -73 87 -98 94 -26 6 -26 6
18 36 24 16 49 28 54 26 6 -2 27 -28 47 -58z m1747 18 c-2 -1 -13 -9 -24 -17
-19 -14 -19 -14 -6 3 7 9 18 17 24 17 6 0 8 -1 6 -3z m-1854 -66 c17 -10 38
-32 47 -48 l17 -30 -41 -33 c-34 -27 -44 -31 -57 -21 -9 6 -42 24 -73 39 l-58
27 42 42 c47 48 76 54 123 24z m2675 -81 c0 -33 -7 -41 -55 -70 -80 -47 -148
-130 -175 -214 -12 -37 -11 -40 11 -57 l24 -19 -22 -6 c-13 -4 -23 -13 -23
-21 0 -11 11 -14 47 -11 62 4 69 -17 8 -26 -29 -5 -45 -12 -45 -22 0 -16 35
-18 95 -4 23 5 44 5 49 0 5 -5 -17 -12 -51 -16 -71 -7 -93 -18 -77 -34 9 -9
33 -8 95 3 62 10 88 11 98 3 11 -8 -4 -14 -65 -26 -43 -8 -85 -19 -92 -23 -20
-13 -2 -29 26 -22 66 14 132 21 132 14 0 -4 -31 -15 -70 -25 -41 -11 -70 -24
-70 -31 0 -17 35 -16 93 1 44 13 47 13 47 -5 0 -13 -12 -21 -42 -30 -24 -6
-49 -13 -56 -15 -20 -6 -8 -29 14 -28 10 0 34 4 52 8 29 7 32 6 32 -17 0 -22
-6 -26 -45 -31 -31 -5 -45 -12 -45 -23 0 -13 9 -15 49 -11 l49 5 6 -101 c11
-197 15 -533 8 -655 l-7 -125 -60 -23 c-32 -13 -75 -38 -95 -57 -19 -18 -45
-39 -56 -45 -21 -10 -22 -8 -33 72 -13 103 -32 503 -25 538 3 14 -2 68 -11
120 -10 52 -21 137 -25 189 -14 158 -38 469 -45 567 l-6 91 38 23 c55 33 189
122 253 168 58 41 70 40 70 -9z m1352 35 l68 1 -7 -41 c-3 -22 -11 -58 -17
-80 -11 -36 -15 -40 -46 -43 -19 -1 -64 6 -100 16 -73 20 -74 21 -49 115 l13
49 35 -9 c20 -4 66 -8 103 -8z m-4115 -90 c52 -31 52 -42 0 -20 -20 8 -59 15
-87 15 -51 0 -59 6 -37 29 17 18 69 7 124 -24z m2794 -67 c22 -12 39 -25 39
-28 0 -4 -12 -13 -26 -20 -40 -22 -106 -107 -124 -161 l-17 -49 -44 39 c-41
37 -43 41 -33 68 18 47 75 118 119 147 22 14 42 26 44 26 2 0 21 -10 42 -22z
m-2783 -14 c57 -28 92 -74 92 -121 0 -18 -14 -49 -35 -79 l-35 -49 27 -23 c16
-13 71 -65 124 -116 114 -110 185 -201 180 -234 -1 -14 4 -24 16 -28 64 -20
103 -46 165 -107 l69 -69 49 7 c60 8 82 -3 115 -59 34 -58 33 -108 -1 -135
-45 -35 -55 -28 -48 33 6 51 5 55 -22 72 -60 40 -179 13 -213 -47 -26 -47 12
-119 63 -119 17 0 25 -7 28 -25 5 -22 -1 -28 -40 -45 -24 -11 -50 -20 -58 -20
-23 0 -72 50 -84 85 -11 32 -9 38 14 65 13 16 28 40 32 52 7 23 7 23 -75 83
-23 16 -69 63 -104 104 -34 41 -94 109 -133 151 -39 41 -91 107 -116 146 -67
105 -89 117 -223 125 -86 4 -120 11 -153 28 -52 27 -77 74 -67 131 11 64 65
133 65 82 0 -43 32 -122 61 -150 76 -75 232 -66 302 17 70 84 26 204 -90 241
-60 19 -62 30 -7 30 34 0 67 -8 102 -26z m3982 -4 c36 -11 82 -20 103 -20 35
0 38 -2 31 -22 -18 -61 -76 -148 -98 -148 -25 0 -132 60 -160 89 l-28 29 38
46 c21 25 41 46 44 46 3 0 34 -9 70 -20z m-2552 -74 c125 -46 280 -96 345
-111 l117 -28 0 -47 0 -46 -115 23 c-63 13 -148 37 -188 54 -109 46 -161 64
-282 100 -60 18 -113 38 -117 44 -12 16 -9 95 2 95 6 0 113 -38 238 -84z
m-1546 30 c63 -23 87 -50 26 -29 -24 8 -64 13 -90 11 -27 -2 -48 -3 -48 -2 0
1 5 15 11 33 10 29 13 31 33 18 11 -7 42 -21 68 -31z m3043 -32 l25 -16 -39
-46 c-48 -57 -80 -121 -89 -174 l-7 -39 -62 42 c-69 45 -75 62 -49 122 18 41
81 114 120 138 33 20 25 22 101 -27z m-3034 -25 c44 -15 41 -12 34 -52 -7 -34
-7 -34 -73 -41 -37 -3 -78 -9 -91 -13 -23 -6 -24 -5 -17 33 11 62 16 72 34 77
33 9 79 7 113 -4z m3947 -30 c20 -18 65 -46 101 -62 l65 -31 -45 -39 c-56 -49
-95 -70 -119 -62 -42 13 -118 84 -130 120 -7 20 -10 39 -7 41 6 7 91 62 96 63
2 1 19 -13 39 -30z m-1798 2 c0 -11 -4 -23 -10 -26 -6 -4 -10 5 -10 19 0 14 5
26 10 26 6 0 10 -9 10 -19z m996 -18 l52 -27 -36 -54 c-32 -48 -37 -64 -42
-133 l-5 -78 -69 29 c-38 16 -73 35 -78 42 -14 23 -8 62 18 118 22 48 87 130
103 130 3 0 29 -12 57 -27z m-1809 -11 c2 -18 -1 -23 -14 -20 -10 2 -19 14
-21 26 -3 18 1 23 14 20 9 -1 19 -13 21 -26z m-1250 -14 c-3 -8 -6 -5 -6 6 -1
11 2 17 5 13 3 -3 4 -12 1 -19z m1313 -8 c0 -5 -4 -10 -10 -10 -5 0 -10 5 -10
10 0 6 5 10 10 10 6 0 10 -4 10 -10z m2390 -35 c11 -32 101 -125 121 -125 5 0
9 -4 9 -9 0 -5 -32 -22 -71 -37 -53 -21 -75 -25 -87 -18 -20 13 -92 148 -92
173 0 12 15 22 48 33 26 9 50 17 54 17 3 1 12 -15 18 -34z m-2277 18 c-7 -2
-19 -2 -25 0 -7 3 -2 5 12 5 14 0 19 -2 13 -5z m1814 -27 c1 -1 -5 -24 -13
-51 -15 -48 -13 -140 3 -182 6 -14 -2 -15 -56 -9 -104 12 -111 17 -111 78 0
72 14 116 50 160 l30 37 48 -16 c26 -9 48 -17 49 -17z m-1985 -87 c4 -46 12
-138 18 -204 5 -66 10 -152 10 -191 0 -61 -3 -72 -19 -77 -17 -4 -18 8 -25
207 -3 116 -9 244 -12 285 -6 60 -4 73 7 69 10 -3 16 -31 21 -89z m126 85 c15
-4 22 -14 22 -30 0 -28 -1 -28 -35 -12 -14 6 -25 19 -25 30 0 20 4 21 38 12z
m102 -12 c0 -11 -11 -24 -25 -30 -23 -11 -25 -10 -25 12 0 22 10 30 43 35 4 0
7 -7 7 -17z m589 -5 c35 -12 36 -14 39 -64 3 -49 1 -53 -19 -53 -12 0 -47 8
-77 17 -58 19 -72 37 -72 95 l0 30 47 -7 c26 -4 63 -12 82 -18z m1481 6 c0
-22 56 -142 76 -165 9 -9 12 -18 7 -21 -7 -5 -154 -37 -168 -37 -18 0 -55 110
-55 162 0 63 -9 56 90 71 47 8 50 7 50 -10z m-3617 -4 c-15 -15 -94 -23 -129
-15 -46 12 -8 26 71 26 51 0 66 -3 58 -11z m3430 1 c14 0 17 -10 17 -62 0 -41
7 -78 20 -107 11 -23 17 -47 14 -52 -3 -5 -38 -9 -78 -9 -68 0 -74 2 -80 23
-10 39 -6 165 6 193 11 23 16 25 48 20 19 -3 43 -6 53 -6z m-2297 -24 c7 -31
-1 -46 -27 -46 -12 0 -19 7 -19 19 0 51 35 71 46 27z m494 4 c0 -5 -4 -10 -10
-10 -5 0 -10 5 -10 10 0 6 5 10 10 10 6 0 10 -4 10 -10z m-32 -12 c-2 -6 -10
-14 -16 -16 -7 -2 -10 2 -6 12 7 18 28 22 22 4z m82 -19 c0 -6 -4 -7 -10 -4
-5 3 -10 11 -10 16 0 6 5 7 10 4 6 -3 10 -11 10 -16z m-33 -15 c-9 -9 -28 6
-21 18 4 6 10 6 17 -1 6 -6 8 -13 4 -17z m113 6 c0 -5 -4 -10 -10 -10 -5 0
-10 5 -10 10 0 6 5 10 10 10 6 0 10 -4 10 -10z m-150 -16 c0 -8 -4 -12 -10 -9
-5 3 -10 10 -10 16 0 5 5 9 10 9 6 0 10 -7 10 -16z m120 7 c0 -17 -18 -21 -24
-6 -3 9 0 15 9 15 8 0 15 -4 15 -9z m-40 -17 c0 -8 -5 -12 -10 -9 -6 4 -8 11
-5 16 9 14 15 11 15 -7z m253 -5 c38 -10 41 -16 31 -67 -6 -27 -9 -30 -26 -21
-12 7 -17 17 -13 28 3 10 -3 28 -14 42 -17 21 -22 23 -50 13 -32 -12 -41 -9
-41 13 0 15 31 12 113 -8z m-563 1 c0 -5 -4 -10 -10 -10 -5 0 -10 5 -10 10 0
6 5 10 10 10 6 0 10 -4 10 -10z m276 -17 c-10 -10 -19 5 -10 18 6 11 8 11 12
0 2 -7 1 -15 -2 -18z m-1159 -16 c102 -53 155 -130 160 -237 5 -94 -3 -101
-69 -58 -29 19 -61 38 -72 41 -12 5 -16 13 -11 25 4 9 9 33 12 53 4 31 1 39
-27 62 -17 15 -42 27 -54 27 -31 0 -146 89 -146 113 0 6 33 8 78 5 57 -4 90
-12 129 -31z m1043 23 c0 -5 -5 -10 -11 -10 -5 0 -7 5 -4 10 3 6 8 10 11 10 2
0 4 -4 4 -10z m85 -10 c3 -5 1 -10 -4 -10 -6 0 -11 5 -11 10 0 6 2 10 4 10 3
0 8 -4 11 -10z m-225 -10 c0 -5 -10 -10 -22 -10 -19 0 -20 2 -8 10 19 13 30
13 30 0z m141 -26 c16 3 41 0 55 -6 19 -9 30 -9 44 0 24 14 37 -2 20 -24 -10
-11 -9 -26 5 -69 9 -30 21 -55 26 -55 5 0 9 -4 9 -10 0 -5 -11 -10 -25 -10
-23 0 -25 4 -25 46 0 37 -5 51 -29 75 -58 57 -129 30 -145 -55 -18 -97 78
-161 147 -99 9 9 17 12 17 7 0 -14 -13 -28 -42 -47 -16 -10 -28 -24 -28 -32 0
-24 -20 -17 -30 9 -5 14 -18 30 -30 36 -11 6 -32 29 -45 50 -14 22 -32 40 -40
40 -8 0 -15 5 -15 10 0 6 8 10 19 10 23 0 34 14 51 67 10 34 10 45 1 57 -7 8
-10 20 -6 26 5 8 12 4 22 -10 12 -17 22 -21 44 -16z m236 4 c-3 -8 -6 -5 -6 6
-1 11 2 17 5 13 3 -3 4 -12 1 -19z m123 2 c0 -11 -30 -21 -42 -14 -7 5 -4 12
7 20 18 13 35 10 35 -6z m-180 -11 c0 -6 -4 -7 -10 -4 -5 3 -10 11 -10 16 0 6
5 7 10 4 6 -3 10 -11 10 -16z m343 2 c3 -11 -1 -22 -9 -25 -12 -5 -14 11 -5
42 3 8 9 -1 14 -17z m-648 -1 c3 -5 1 -10 -4 -10 -6 0 -11 5 -11 10 0 6 2 10
4 10 3 0 8 -4 11 -10z m685 0 c0 -5 -4 -10 -10 -10 -5 0 -10 5 -10 10 0 6 5
10 10 10 6 0 10 -4 10 -10z m68 -12 c-6 -18 -28 -21 -28 -4 0 9 7 16 16 16 9
0 14 -5 12 -12z m-2268 -13 c-12 -15 -30 -12 -30 6 0 5 10 9 21 9 18 0 19 -2
9 -15z m1490 6 c0 -5 -7 -11 -15 -15 -15 -5 -20 5 -8 17 9 10 23 9 23 -2z
m448 -9 c2 -7 -3 -12 -12 -12 -9 0 -16 7 -16 16 0 17 22 14 28 -4z m174 -14
c-9 -9 -12 -7 -12 12 0 19 3 21 12 12 9 -9 9 -15 0 -24z m112 0 c-3 -4 -12 -8
-20 -8 -17 0 -19 27 -1 33 14 5 28 -13 21 -25z m-2129 12 c3 -5 -7 -26 -22
-45 -28 -34 -28 -35 -47 -15 -20 19 -20 20 4 45 24 26 54 33 65 15z m1445 -11
c0 -5 -4 -9 -10 -9 -5 0 -10 7 -10 16 0 8 5 12 10 9 6 -3 10 -10 10 -16z m324
-4 c3 -8 1 -15 -4 -15 -6 0 -10 7 -10 15 0 8 2 15 4 15 2 0 6 -7 10 -15z
m-359 -5 c3 -5 1 -10 -4 -10 -6 0 -11 5 -11 10 0 6 2 10 4 10 3 0 8 -4 11 -10z
m304 -32 c-1 -28 -3 -34 -6 -18 -3 14 -9 30 -14 36 -5 6 -6 14 -2 17 16 16 23
4 22 -35z m371 28 c0 -8 -7 -16 -15 -20 -10 -4 -15 1 -15 14 0 11 7 20 15 20
8 0 15 -6 15 -14z m90 -6 c0 -11 -4 -20 -10 -20 -5 0 -10 9 -10 20 0 11 5 20
10 20 6 0 10 -9 10 -20z m-573 -12 c26 -24 31 -73 10 -102 -21 -28 -78 -18
-95 17 -16 34 -1 93 26 100 31 8 36 7 59 -15z m343 0 c0 -13 -23 -5 -28 10 -2
7 2 10 12 6 9 -3 16 -11 16 -16z m95 1 c10 -15 -1 -23 -20 -15 -9 3 -13 10
-10 16 8 13 22 13 30 -1z m95 -23 c-7 -7 -14 -6 -22 2 -10 10 -10 15 2 22 17
11 34 -10 20 -24z m-320 14 c0 -5 -4 -10 -10 -10 -5 0 -10 5 -10 10 0 6 5 10
10 10 6 0 10 -4 10 -10z m-1725 -71 c42 -65 45 -74 36 -102 -30 -84 7 -220 68
-251 40 -21 69 -20 116 4 22 11 44 20 50 20 5 0 35 -20 67 -43 63 -48 64 -63
5 -94 -25 -14 -57 -18 -152 -18 -104 0 -125 3 -161 22 -51 27 -110 86 -136
138 -26 49 -35 178 -19 257 10 47 60 138 76 138 2 0 25 -32 50 -71z m1695 61
c0 -5 -4 -10 -10 -10 -5 0 -10 5 -10 10 0 6 5 10 10 10 6 0 10 -4 10 -10z
m210 -5 c0 -8 -4 -15 -10 -15 -5 0 -10 7 -10 15 0 8 5 15 10 15 6 0 10 -7 10
-15z m97 -10 c-4 -8 -11 -15 -17 -15 -14 0 -13 27 3 33 16 6 21 1 14 -18z
m-710 -27 c-3 -7 -5 -2 -5 12 0 14 2 19 5 13 2 -7 2 -19 0 -25z m523 17 c0 -8
-4 -15 -10 -15 -5 0 -10 7 -10 15 0 8 5 15 10 15 6 0 10 -7 10 -15z m50 5 c0
-5 -4 -10 -10 -10 -5 0 -10 5 -10 10 0 6 5 10 10 10 6 0 10 -4 10 -10z m86
-17 c-10 -10 -19 5 -10 18 6 11 8 11 12 0 2 -7 1 -15 -2 -18z m93 -14 c-9 -5
-15 -4 -18 2 -2 6 3 15 10 20 9 5 15 4 18 -2 2 -6 -3 -15 -10 -20z m-344 11
c3 -5 1 -10 -4 -10 -6 0 -11 5 -11 10 0 6 2 10 4 10 3 0 8 -4 11 -10z m68 -10
c4 -16 14 -20 46 -20 23 0 52 -7 66 -16 19 -13 27 -13 44 -2 26 16 40 2 15
-16 -17 -13 -17 -18 -6 -48 6 -19 12 -44 12 -56 0 -12 9 -26 20 -32 30 -16 10
-49 -25 -42 -19 3 -30 -2 -46 -22 -11 -14 -30 -26 -41 -26 -11 0 -22 -8 -25
-20 -3 -11 -9 -20 -13 -20 -25 0 -40 15 -40 39 0 25 3 26 38 23 33 -3 42 1 65
28 29 33 35 77 16 112 -15 28 -72 50 -102 39 -61 -23 -88 -110 -47 -151 27
-27 12 -26 -17 2 -13 12 -23 33 -23 50 0 21 -6 29 -25 34 -32 8 -27 28 8 32
17 2 27 9 27 20 0 10 9 23 21 30 20 13 21 23 4 65 -5 12 -3 17 8 17 8 0 17 -9
20 -20z m147 5 c0 -8 -4 -15 -9 -15 -13 0 -22 16 -14 24 11 11 23 6 23 -9z
m167 -37 c-3 -7 -5 -2 -5 12 0 14 2 19 5 13 2 -7 2 -19 0 -25z m-385 -10 c-7
-7 -12 -8 -12 -2 0 6 3 14 7 17 3 4 9 5 12 2 2 -3 -1 -11 -7 -17z m363 2 c0
-7 -6 -15 -12 -17 -8 -3 -13 4 -13 17 0 13 5 20 13 18 6 -3 12 -11 12 -18z
m-715 -4 c0 -2 -7 -9 -15 -16 -12 -10 -15 -10 -15 4 0 9 7 16 15 16 8 0 15 -2
15 -4z m635 -36 c-3 -5 -1 -19 5 -30 7 -14 8 -26 1 -38 -9 -15 -10 -14 -11 8
0 14 -4 32 -9 40 -11 15 -5 30 10 30 6 0 7 -4 4 -10z m76 -33 c-8 -8 -11 -5
-11 9 0 27 14 41 18 19 2 -9 -1 -22 -7 -28z m-711 23 c0 -5 -2 -10 -4 -10 -3
0 -8 5 -11 10 -3 6 -1 10 4 10 6 0 11 -4 11 -10z m-39 -33 c-8 -8 -11 -7 -11
4 0 20 13 34 18 19 3 -7 -1 -17 -7 -23z m89 2 c0 -6 -4 -7 -10 -4 -5 3 -10 11
-10 16 0 6 5 7 10 4 6 -3 10 -11 10 -16z m230 -1 c0 -18 -2 -20 -9 -8 -6 8 -7
18 -5 22 9 14 14 9 14 -14z m-260 -3 c0 -8 -4 -15 -10 -15 -5 0 -10 7 -10 15
0 8 5 15 10 15 6 0 10 -7 10 -15z m494 -7 c22 -32 20 -64 -6 -82 -25 -18 -68
-21 -68 -6 0 6 8 10 18 10 38 0 56 46 27 70 -12 10 -21 10 -40 2 -28 -13 -34
2 -7 17 28 17 60 12 76 -11z m-524 -18 c0 -10 -31 -23 -38 -15 -8 7 19 35 29
29 5 -3 9 -9 9 -14z m200 10 c0 -5 -5 -10 -11 -10 -5 0 -7 5 -4 10 3 6 8 10
11 10 2 0 4 -4 4 -10z m530 0 c0 -5 -5 -10 -11 -10 -5 0 -7 5 -4 10 3 6 8 10
11 10 2 0 4 -4 4 -10z m-663 -22 c-3 -8 -6 -5 -6 6 -1 11 2 17 5 13 3 -3 4
-12 1 -19z m629 -5 c-10 -10 -19 5 -10 18 6 11 8 11 12 0 2 -7 1 -15 -2 -18z
m-659 -5 c-3 -8 -6 -5 -6 6 -1 11 2 17 5 13 3 -3 4 -12 1 -19z m-1237 4 c0 -5
-13 -7 -30 -4 -16 2 -30 6 -30 8 0 2 14 4 30 4 17 0 30 -4 30 -8z m1475 -22
c-5 -8 -11 -8 -17 -2 -6 6 -7 16 -3 22 5 8 11 8 17 2 6 -6 7 -16 3 -22z m30
20 c3 -5 1 -10 -4 -10 -6 0 -11 5 -11 10 0 6 2 10 4 10 3 0 8 -4 11 -10z
m-311 -24 c-10 -8 -21 -12 -24 -9 -3 2 4 11 14 19 11 7 22 12 25 9 2 -3 -4
-12 -15 -19z m746 5 c0 -11 -4 -23 -10 -26 -6 -4 -10 5 -10 19 0 14 5 26 10
26 6 0 10 -9 10 -19z m-509 -14 c-13 -13 -26 -3 -16 12 3 6 11 8 17 5 6 -4 6
-10 -1 -17z m109 4 c0 -15 -5 -18 -21 -14 -21 6 -21 7 -4 20 24 17 25 17 25
-6z m-1550 -11 c0 -5 -11 -10 -24 -10 -14 0 -28 5 -31 10 -4 6 7 10 24 10 17
0 31 -4 31 -10z m1349 -6 c9 -8 -45 -2 -64 6 -14 7 -8 8 20 3 22 -3 42 -7 44
-9z m542 -11 c-12 -20 -14 -14 -5 12 4 9 9 14 11 11 3 -2 0 -13 -6 -23z
m-1781 -65 c0 -4 -9 -12 -20 -18 -17 -9 -20 -6 -29 27 -17 62 -13 70 19 33 16
-19 29 -38 30 -42z m1173 45 c22 -4 27 -11 27 -35 0 -26 -3 -29 -22 -22 -61
18 -68 24 -68 50 0 21 4 25 18 19 9 -3 29 -9 45 -12z m97 -43 c0 -43 0 -43
-24 -34 -26 10 -17 74 10 74 10 0 14 -12 14 -40z m550 31 c0 -5 -7 -14 -15
-21 -16 -14 -18 -10 -9 14 6 17 24 22 24 7z m-1920 -11 c0 -5 -11 -10 -25 -10
-14 0 -25 5 -25 10 0 6 11 10 25 10 14 0 25 -4 25 -10z m1580 6 c0 -3 -4 -8
-10 -11 -5 -3 -10 -1 -10 4 0 6 5 11 10 11 6 0 10 -2 10 -4z m287 -38 c-6 -4
-15 -2 -19 5 -4 6 -2 15 5 19 6 4 15 2 19 -5 4 -6 2 -15 -5 -19z m-307 -14 c0
-2 -9 0 -20 6 -11 6 -20 13 -20 16 0 2 9 0 20 -6 11 -6 20 -13 20 -16z m266
-1 c-10 -10 -19 5 -10 18 6 11 8 11 12 0 2 -7 1 -15 -2 -18z m-557 -19 c46
-13 122 -41 170 -63 47 -21 138 -54 201 -74 104 -32 142 -43 235 -65 26 -7 30
-13 33 -45 l3 -37 -63 24 c-35 13 -151 54 -258 91 -107 38 -235 85 -283 106
-48 22 -105 42 -126 45 -58 9 -70 20 -46 38 11 9 27 13 35 10 8 -3 53 -16 99
-30z m-1259 16 c0 -5 -4 -10 -9 -10 -6 0 -13 5 -16 10 -3 6 1 10 9 10 9 0 16
-4 16 -10z m1611 -21 c10 -6 8 -9 -8 -9 -17 0 -23 6 -23 23 0 16 3 18 9 8 5
-7 15 -17 22 -22z m-121 17 c0 -3 -4 -8 -10 -11 -5 -3 -10 -1 -10 4 0 6 5 11
10 11 6 0 10 -2 10 -4z m385 -6 c3 -5 -3 -10 -15 -10 -12 0 -18 5 -15 10 3 6
10 10 15 10 5 0 12 -4 15 -10z m-415 -10 c0 -5 -9 -10 -21 -10 -11 0 -17 5
-14 10 3 6 13 10 21 10 8 0 14 -4 14 -10z m370 0 c0 -5 -8 -10 -17 -10 -15 0
-16 2 -3 10 19 12 20 12 20 0z m-310 -10 c0 -13 -28 -25 -38 -16 -3 4 0 11 8
16 20 13 30 12 30 0z m410 -4 c0 -24 -17 -28 -23 -6 -3 13 0 20 9 20 8 0 14
-6 14 -14z m-460 -16 c0 -5 -2 -10 -4 -10 -3 0 -8 5 -11 10 -3 6 -1 10 4 10 6
0 11 -4 11 -10z m200 1 c0 -6 -4 -13 -10 -16 -5 -3 -10 1 -10 9 0 9 5 16 10
16 6 0 10 -4 10 -9z m-130 -33 c0 -3 -9 -4 -20 -1 -16 4 -18 8 -9 20 10 11 14
11 20 1 5 -7 9 -16 9 -20z m34 11 c-8 -14 -24 -10 -24 6 0 9 6 12 15 9 8 -4
12 -10 9 -15z m301 12 c3 -5 1 -13 -5 -16 -15 -9 -43 3 -35 15 8 13 32 13 40
1z m183 -13 c-8 -12 -20 -24 -26 -26 -19 -6 -14 26 6 37 28 17 35 13 20 -11z
m-331 -5 c2 -6 -3 -13 -12 -16 -10 -5 -15 0 -15 14 0 21 21 22 27 2z m-87 3
c0 -9 -30 -14 -35 -6 -4 6 3 10 14 10 12 0 21 -2 21 -4z m-45 -16 c3 -5 -1
-10 -10 -10 -9 0 -13 5 -10 10 3 6 8 10 10 10 2 0 7 -4 10 -10z m88 -4 c6 -16
-2 -28 -14 -20 -12 7 -11 34 0 34 5 0 11 -6 14 -14z m107 4 c0 -5 -2 -10 -4
-10 -3 0 -8 5 -11 10 -3 6 -1 10 4 10 6 0 11 -4 11 -10z m-140 -25 c0 -9 -6
-12 -15 -9 -8 4 -15 10 -15 15 0 5 7 9 15 9 8 0 15 -7 15 -15z m250 1 c0 -16
-18 -31 -27 -22 -8 8 5 36 17 36 5 0 10 -6 10 -14z m-157 -11 c7 -16 -8 -29
-23 -20 -15 9 -12 35 4 35 8 0 16 -7 19 -15z m104 -27 c-18 -12 -27 -10 -27 6
0 8 6 16 13 19 17 6 29 -16 14 -25z m-37 2 c0 -5 -10 -10 -22 -10 -19 0 -20 2
-8 10 19 13 30 13 30 0z m100 -25 c0 -18 -4 -23 -15 -19 -16 6 -20 26 -8 37
13 14 23 6 23 -18z m-50 -5 c0 -5 -2 -10 -4 -10 -3 0 -8 5 -11 10 -3 6 -1 10
4 10 6 0 11 -4 11 -10z m-859 -140 c55 -22 132 -49 171 -60 39 -11 73 -22 75
-24 3 -3 -3 -25 -12 -51 -13 -34 -16 -60 -12 -105 6 -55 5 -60 -13 -60 -14 0
-20 7 -20 21 0 46 -26 103 -66 148 -57 63 -138 102 -241 115 -46 5 -83 14 -83
19 0 4 5 18 11 29 15 27 59 20 190 -32z m-1282 -97 c68 -19 149 -46 180 -60
l56 -25 -37 -19 c-20 -10 -39 -23 -42 -28 -8 -12 -47 -1 -115 33 -29 15 -90
36 -135 47 -186 45 -183 43 -122 80 36 22 37 22 215 -28z m1319 -22 c26 -17
58 -46 71 -66 28 -42 40 -127 21 -150 -22 -27 -37 -16 -55 38 -27 83 -103 189
-160 224 -14 8 -5 8 28 -2 26 -7 69 -27 95 -44z m-162 25 c59 -27 113 -88 148
-167 43 -98 43 -101 -20 -132 -30 -15 -57 -27 -60 -27 -3 0 -2 15 1 34 10 49
-22 177 -56 230 -16 26 -43 55 -61 66 -45 27 -14 25 48 -4z m-65 -23 c63 -37
121 -201 100 -281 -9 -34 -18 -43 -52 -56 -23 -9 -43 -15 -46 -13 -2 2 1 16 7
31 34 90 -22 255 -105 308 -19 13 -35 26 -35 30 0 21 82 9 131 -19z m503 17
l26 -10 -20 -32 c-11 -18 -20 -45 -20 -60 0 -30 31 -68 54 -68 25 0 74 49 81
81 6 28 9 30 22 16 14 -14 13 -20 -7 -61 -14 -29 -34 -53 -54 -63 -38 -20
-114 -22 -126 -3 -19 31 -21 102 -4 156 9 30 18 54 20 54 1 0 14 -4 28 -10z
m-645 -35 c86 -44 145 -178 122 -279 l-12 -54 -38 10 c-37 9 -39 12 -45 60
-14 104 -81 215 -140 235 -18 5 -16 9 19 24 49 23 58 23 94 4z m-1209 -5 c19
-6 74 -19 122 -30 47 -10 119 -34 160 -53 40 -19 83 -37 95 -41 17 -6 30 -32
63 -131 23 -68 50 -172 60 -232 11 -59 27 -125 36 -146 10 -20 14 -40 11 -44
-4 -3 -39 3 -79 15 -40 11 -93 24 -118 27 -25 4 -63 15 -85 25 -22 10 -54 21
-72 24 -37 8 -66 60 -78 141 -6 44 -80 266 -135 405 -11 27 -19 50 -17 50 1 0
18 -5 37 -10z m1944 -13 c13 -21 -22 -72 -50 -72 -27 0 -29 36 -3 69 23 29 36
30 53 3z m-853 -47 c47 -24 72 -62 99 -149 29 -92 30 -91 -41 -71 -61 16 -62
17 -81 67 -10 28 -37 72 -60 97 -22 26 -39 49 -36 51 7 7 52 24 66 24 7 1 31
-8 53 -19z m-558 -27 c3 -10 8 -40 12 -68 3 -27 17 -79 29 -115 13 -36 29 -99
35 -140 7 -41 18 -95 26 -120 27 -93 27 -104 -9 -139 l-32 -31 -26 77 c-15 43
-32 116 -38 162 -6 46 -30 138 -54 205 -23 67 -40 128 -38 135 5 14 61 51 79
51 6 0 14 -8 16 -17z m1572 2 l30 -15 -37 5 c-30 5 -38 3 -38 -9 0 -18 38 -29
158 -46 86 -13 96 -18 82 -39 -6 -11 -28 -10 -121 8 -133 25 -149 26 -149 8 0
-9 41 -21 125 -37 69 -13 128 -27 131 -31 2 -4 -11 -11 -30 -15 -32 -6 -68 -1
-244 28 -35 6 -66 7 -70 3 -15 -15 33 -33 120 -44 51 -7 94 -14 97 -16 2 -3
-12 -12 -32 -20 -61 -25 -179 -18 -435 26 l-65 12 39 13 c21 7 40 17 42 21 11
31 18 33 98 18 72 -14 83 -14 121 0 46 18 109 81 119 120 7 28 17 30 59 10z
m-1151 -20 c28 -18 70 -77 86 -119 10 -28 10 -29 -20 -22 -19 3 -46 0 -67 -9
-20 -9 -37 -14 -37 -13 -10 28 -47 90 -69 114 l-27 32 37 15 c49 20 68 21 97
2z m-121 -88 c14 -17 32 -46 41 -64 15 -31 15 -33 -3 -43 -11 -5 -27 -10 -36
-10 -8 0 -18 -7 -21 -15 -4 -10 -14 2 -31 35 -14 28 -41 63 -61 80 -20 16 -34
31 -31 33 2 2 22 10 44 19 47 17 64 11 98 -35z m1637 -44 c7 -8 -118 2 -126 9
-3 4 -3 15 1 27 6 19 7 19 63 -6 31 -14 59 -27 62 -30z m-1767 -3 c57 -50 87
-131 87 -232 0 -60 -3 -72 -25 -93 -13 -14 -28 -25 -33 -25 -5 0 -9 28 -9 63
1 77 -32 178 -79 249 -57 84 -21 108 59 38z m1975 -65 c31 -9 76 -23 99 -31
l41 -15 -10 -37 c-6 -20 -8 -64 -5 -98 6 -61 6 -61 -19 -56 -19 3 -24 10 -24
33 0 67 -55 153 -129 201 -25 17 -38 28 -28 24 10 -3 43 -13 75 -21z m-1643 6
c83 -18 286 -81 330 -104 l46 -23 -42 -27 c-47 -31 -52 -31 -149 18 -36 18
-108 43 -160 55 -127 30 -145 35 -145 45 0 7 64 45 75 45 3 -1 23 -5 45 -9z
m740 -26 c88 -14 178 -25 200 -25 l40 -1 -48 -25 c-27 -14 -55 -23 -63 -20 -7
3 -84 15 -171 26 -87 12 -176 26 -197 31 l-40 11 40 18 c21 10 48 16 59 14 11
-2 92 -15 180 -29z m671 -8 c53 -27 115 -103 154 -189 31 -69 27 -94 -20 -118
-85 -43 -85 -43 -81 7 4 56 -15 153 -42 211 -20 44 -66 97 -102 119 -37 22 35
-2 91 -30z m117 7 c29 -14 65 -37 80 -52 81 -76 97 -222 26 -222 -13 0 -19 7
-19 23 0 59 -108 227 -173 269 l-32 20 33 -6 c19 -3 57 -17 85 -32z m496 -33
c16 -48 14 -69 -10 -119 -28 -57 -69 -82 -136 -82 -61 0 -72 12 -80 94 -7 67
7 96 48 96 30 0 30 0 14 -30 -31 -59 -8 -110 49 -110 40 0 70 21 86 59 11 26
9 36 -10 76 -18 37 -20 48 -9 61 16 19 31 4 48 -45z m-753 34 c77 -23 118 -76
148 -192 32 -124 20 -170 -53 -201 l-51 -21 7 27 c5 15 8 63 8 107 0 102 -32
174 -106 238 -40 35 -46 43 -31 49 24 9 23 10 78 -7z m-796 -43 c25 -6 109
-19 188 -29 78 -9 142 -20 142 -24 0 -3 -20 -14 -43 -23 -41 -15 -51 -15 -153
0 -60 9 -119 17 -131 18 -13 0 -23 7 -23 14 0 7 -8 15 -17 18 -10 3 -31 11
-47 17 l-30 11 30 12 c16 7 31 9 34 5 3 -4 25 -13 50 -19z m705 -6 c134 -79
171 -341 56 -400 -16 -9 -31 -16 -33 -16 -2 0 -4 33 -4 73 -1 48 -10 99 -28
153 -22 67 -34 89 -71 123 -24 22 -49 41 -55 41 -37 0 35 48 74 49 11 1 38
-10 61 -23z m-1207 -25 c51 -11 133 -38 182 -60 48 -22 99 -43 112 -46 20 -5
30 -27 72 -155 26 -81 54 -189 62 -238 7 -50 22 -116 33 -147 l20 -56 -32 7
c-18 3 -90 26 -162 51 -71 25 -148 49 -170 55 -76 20 -77 21 -113 178 -16 67
-96 298 -148 424 -8 22 -22 23 144 -13z m1988 -6 c8 -42 -15 -75 -53 -75 -30
0 -39 22 -23 60 24 58 66 66 76 15z m-2307 -95 c0 -51 -15 -11 -22 60 l-6 55
14 -40 c7 -22 14 -56 14 -75z m1377 70 c23 -12 54 -38 69 -60 59 -85 88 -258
52 -313 -12 -19 -115 -71 -124 -63 -2 2 2 28 7 58 21 111 -19 243 -96 319
l-45 44 38 17 c49 22 49 22 99 -2z m-1223 -32 c8 -24 18 -50 22 -59 4 -12 -2
-19 -25 -27 -17 -7 -28 -7 -25 -2 3 6 6 37 6 70 0 33 2 60 4 60 2 0 10 -19 18
-42z m615 -5 c5 -10 12 -41 15 -69 3 -28 19 -91 35 -140 16 -49 32 -111 36
-139 3 -27 16 -90 29 -138 18 -72 19 -89 8 -96 -7 -5 -18 -19 -24 -31 -7 -13
-16 -22 -22 -22 -17 1 -53 118 -69 222 -9 63 -33 152 -61 232 -26 71 -44 136
-41 144 5 13 64 54 78 54 4 0 11 -8 16 -17z m161 -6 l85 -12 -88 -33 c-48 -19
-89 -32 -90 -30 -2 1 -6 22 -9 46 -3 28 -1 42 6 41 7 0 50 -6 96 -12z m334
-35 c71 -75 102 -205 78 -324 -13 -59 -13 -59 -99 -87 l-33 -10 7 32 c22 100
-20 264 -87 341 -23 26 -40 49 -37 51 2 2 24 13 48 23 53 22 83 16 123 -26z
m-171 -54 c86 -92 127 -283 76 -358 -13 -19 -36 -39 -53 -46 l-30 -12 0 107
c0 95 -3 112 -28 165 -16 35 -47 77 -73 102 l-46 42 43 15 c64 22 78 21 111
-15z m-144 -55 c80 -66 116 -157 110 -280 -4 -78 -18 -104 -66 -118 -21 -6
-22 -4 -15 22 25 88 -37 294 -107 358 -11 10 -20 22 -20 27 0 7 31 25 49 27 2
1 24 -15 49 -36z m-25 -171 c10 -26 20 -83 23 -127 4 -79 4 -80 -11 -42 -13
34 -19 66 -41 197 -7 45 5 32 29 -28z"/>
<path d="M3965 5508 c-115 -10 -129 -13 -119 -29 5 -8 35 -10 102 -5 174 12
212 18 212 32 0 16 -38 16 -195 2z"/>
<path d="M3983 5443 c-43 -4 -56 -18 -28 -29 26 -10 208 10 213 24 4 12 -79
14 -185 5z"/>
<path d="M3081 5261 c-18 -17 -60 -50 -94 -75 -98 -72 -109 -83 -103 -104 4
-11 15 -27 26 -37 21 -19 4 -26 170 64 52 29 105 54 118 57 32 9 34 16 15 73
-16 51 -16 51 -58 51 -34 0 -50 -6 -74 -29z m79 -5 c0 -2 -8 -10 -17 -17 -16
-13 -17 -12 -4 4 13 16 21 21 21 13z m20 -25 c0 -13 -29 -35 -37 -28 -7 8 15
37 28 37 5 0 9 -4 9 -9z m-71 -37 c6 -15 10 -28 9 -29 -16 -11 -182 -95 -189
-95 -20 0 -7 27 28 55 46 37 126 94 134 94 3 1 11 -11 18 -25z m81 6 c0 -5 -5
-10 -11 -10 -5 0 -7 5 -4 10 3 6 8 10 11 10 2 0 4 -4 4 -10z"/>
<path d="M3823 5143 c-7 -5 -15 -27 -19 -49 l-6 -40 69 -40 c40 -23 108 -78
168 -136 55 -54 106 -98 114 -98 9 0 33 7 56 16 29 11 45 25 58 53 9 21 17 45
17 53 0 9 -37 42 -82 73 -46 32 -109 83 -141 114 l-58 56 -82 3 c-45 1 -87 -1
-94 -5z m130 -30 c-7 -2 -21 -2 -30 0 -10 3 -4 5 12 5 17 0 24 -2 18 -5z m-27
-54 c32 -23 73 -53 89 -69 17 -15 56 -44 88 -65 60 -39 63 -44 46 -76 -10 -19
-16 -15 -90 55 -43 42 -111 97 -151 122 -88 56 -81 50 -73 63 11 19 30 12 91
-30z m94 21 c0 -5 -13 -10 -29 -10 -17 0 -33 5 -36 10 -4 6 8 10 29 10 20 0
36 -4 36 -10z m35 -30 c4 -6 -6 -10 -24 -10 -16 0 -33 5 -36 10 -4 6 6 10 24
10 16 0 33 -4 36 -10z m45 -45 c11 -13 9 -15 -13 -15 -13 0 -30 7 -37 15 -11
13 -9 15 13 15 13 0 30 -7 37 -15z m56 -40 c18 -14 18 -14 -7 -15 -14 0 -34 7
-45 15 -18 14 -18 14 7 15 14 0 34 -7 45 -15z m60 -40 c18 -14 18 -14 -7 -15
-14 0 -34 7 -45 15 -18 14 -18 14 7 15 14 0 34 -7 45 -15z m7 -72 c-7 -2 -19
-2 -25 0 -7 3 -2 5 12 5 14 0 19 -2 13 -5z"/>
<path d="M3052 4986 c-46 -13 -107 -85 -110 -128 -3 -50 30 -95 91 -123 60
-28 94 -31 141 -11 77 32 70 187 -11 244 -36 25 -70 30 -111 18z m89 -44 c22
-19 22 -19 -57 -25 -43 -3 -80 -4 -82 -2 -9 8 64 45 89 45 15 0 37 -8 50 -18z
m50 -89 c3 -84 -10 -105 -68 -107 -59 -1 -119 30 -139 72 -16 34 -16 36 2 49
12 9 49 13 111 13 l93 0 1 -27z"/>
<path d="M3090 4786 c0 -13 6 -26 13 -29 22 -7 37 4 37 29 0 19 -5 24 -25 24
-20 0 -25 -5 -25 -24z"/>
<path d="M3864 4781 c-33 -14 -73 -68 -80 -108 -18 -94 54 -167 163 -167 91 0
148 64 140 157 -3 40 -11 56 -40 85 -33 33 -42 36 -99 39 -35 1 -72 -1 -84 -6z
m130 -36 c30 -14 74 -71 63 -81 -8 -8 -177 78 -171 87 8 14 73 10 108 -6z m5
-97 c25 -13 46 -29 48 -35 2 -6 -8 -25 -22 -42 -24 -27 -33 -31 -78 -31 -90 0
-147 54 -133 124 11 53 21 57 84 31 31 -12 77 -34 101 -47z"/>
<path d="M3877 4624 c-4 -4 -7 -18 -7 -31 0 -20 5 -24 23 -21 16 2 22 10 22
28 0 24 -23 39 -38 24z"/>
<path d="M3065 4390 c-9 -15 27 -73 56 -87 37 -19 125 -15 190 8 52 19 64 20
103 9 25 -7 82 -34 128 -61 89 -52 139 -62 207 -38 26 9 40 8 79 -9 26 -11 72
-23 102 -26 30 -4 91 -16 135 -27 102 -26 110 -27 110 -9 0 18 -57 35 -203 60
-63 11 -127 28 -143 37 -25 15 -36 16 -87 5 -87 -18 -97 -16 -191 38 -47 27
-109 55 -138 61 -46 11 -59 10 -116 -9 -35 -12 -77 -22 -94 -22 -44 0 -91 19
-98 40 -8 26 -31 44 -40 30z"/>
<path d="M4885 2309 c-22 -4 -58 -15 -80 -23 -38 -14 -40 -16 -38 -53 16 -279
13 -268 69 -238 16 8 39 15 51 15 12 0 34 5 48 12 l25 11 0 144 c0 160 6 150
-75 132z m43 -141 l-3 -111 -53 -15 c-29 -8 -54 -13 -56 -11 -2 2 -6 52 -9
110 l-6 105 42 16 c23 9 52 17 65 17 22 1 23 0 20 -111z"/>
<path d="M2244 3135 c-27 -41 4 -98 124 -227 37 -40 113 -126 170 -191 108
-123 125 -133 170 -101 12 8 22 23 22 33 0 24 -56 98 -158 205 -46 49 -115
131 -154 182 -95 127 -139 152 -174 99z m63 -20 c13 -9 48 -50 79 -91 32 -42
105 -129 164 -193 136 -150 158 -180 139 -192 -22 -14 -29 -11 -63 29 -18 20
-89 99 -157 176 -151 168 -199 232 -199 263 0 27 8 29 37 8z"/>
<path d="M3687 2983 c-14 -14 -6 -53 13 -63 40 -22 80 26 48 58 -13 13 -50 16
-61 5z"/>
<path d="M1541 2143 c-53 -45 -41 -65 48 -82 l74 -14 24 27 c12 15 23 33 23
40 0 24 -37 47 -86 52 -44 5 -53 2 -83 -23z m104 -33 c3 -6 -5 -10 -19 -10
-14 0 -28 5 -31 10 -3 6 5 10 19 10 14 0 28 -4 31 -10z"/>
<path d="M5530 2038 c-106 -24 -161 -93 -168 -210 l-4 -67 68 -31 c86 -39 138
-46 214 -30 74 16 109 47 111 99 4 99 -9 148 -47 182 -23 20 -112 69 -122 68
-4 -1 -27 -6 -52 -11z m88 -57 c58 -30 84 -63 80 -102 -3 -31 -7 -35 -46 -44
-95 -23 -222 11 -230 61 -4 26 45 72 94 89 51 19 58 18 102 -4z m-198 -176 c0
-8 -2 -15 -4 -15 -2 0 -6 7 -10 15 -3 8 -1 15 4 15 6 0 10 -7 10 -15z m50 -20
c0 -8 -4 -15 -10 -15 -5 0 -10 7 -10 15 0 8 5 15 10 15 6 0 10 -7 10 -15z m60
-21 c0 -8 -6 -14 -13 -14 -19 0 -27 10 -20 25 6 17 33 8 33 -11z m168 14 c-5
-15 -70 -36 -115 -37 -24 -1 -31 3 -29 17 2 13 16 18 62 23 32 3 65 6 72 7 8
1 12 -4 10 -10z"/>
<path d="M5511 1924 c-26 -33 -26 -39 1 -58 31 -22 74 -20 98 4 24 24 24 29 4
58 -22 32 -76 30 -103 -4z m77 -21 c-4 -20 -35 -30 -50 -15 -15 15 0 32 28 32
19 0 25 -5 22 -17z"/>
<path d="M1498 1883 c-41 -6 -64 -43 -72 -114 -3 -35 -2 -67 2 -71 5 -5 47
-11 93 -14 115 -8 147 6 166 72 24 82 27 115 12 125 -14 9 -149 10 -201 2z
m162 -53 c0 -16 -42 -29 -115 -36 -57 -6 -65 -5 -65 10 0 9 10 21 23 26 31 12
157 12 157 0z m-30 -79 c0 -15 -29 -21 -93 -20 -71 1 -66 6 18 18 33 5 63 9
68 10 4 0 7 -3 7 -8z"/>
<path d="M5810 1550 c-36 -22 -81 -43 -100 -46 -45 -9 -50 -17 -50 -87 0 -54
2 -58 28 -67 15 -6 34 -15 42 -20 8 -6 35 -20 59 -31 l44 -21 52 26 c29 14 57
26 62 26 6 0 22 9 36 20 19 15 27 33 32 72 4 29 11 60 16 70 7 13 -3 23 -54
51 -94 52 -94 52 -167 7z m110 -30 c22 -11 40 -24 40 -28 0 -4 -22 -20 -50
-35 l-49 -28 -43 22 c-39 20 -41 23 -24 33 10 6 32 21 50 33 17 12 32 22 34
22 1 1 21 -8 42 -19z m-145 -102 c32 -16 45 -28 45 -43 0 -34 -9 -35 -61 -7
-36 20 -49 33 -49 50 0 27 8 28 65 0z m188 -9 c-5 -17 -75 -59 -99 -59 -11 0
18 40 29 40 7 0 23 9 37 20 32 25 39 25 33 -1z"/>
<path d="M5218 1484 c-30 -33 -36 -35 -75 -29 -31 4 -54 1 -92 -16 l-50 -21
-31 26 c-37 30 -41 31 -81 10 -19 -9 -39 -33 -52 -62 -20 -42 -26 -47 -54 -47
-41 0 -48 -19 -10 -23 18 -2 31 -11 37 -27 5 -12 15 -26 22 -29 7 -3 1 -4 -15
-1 -87 17 -120 18 -115 4 3 -8 35 -20 79 -30 51 -10 74 -20 74 -30 0 -15 -25
-16 -112 -4 -44 6 -53 5 -53 -7 0 -11 15 -17 50 -22 39 -5 48 -10 43 -22 -4
-11 -16 -14 -42 -12 -27 2 -36 -1 -36 -12 0 -8 11 -16 25 -18 32 -4 50 -28 50
-64 0 -22 7 -31 28 -39 53 -21 101 -23 136 -4 31 17 35 17 57 2 13 -10 33 -17
46 -17 18 0 22 -6 25 -37 3 -37 4 -38 48 -41 70 -5 109 6 122 34 6 13 16 24
22 24 6 0 39 13 74 30 51 24 68 28 84 19 55 -29 98 25 98 125 0 57 -7 66 -56
66 -22 0 -24 4 -24 45 0 35 -6 51 -30 78 -19 22 -30 46 -30 65 0 48 -17 80
-52 102 -48 29 -73 25 -110 -16z m90 -30 c20 -14 21 -17 7 -37 -23 -34 -18
-54 23 -84 48 -36 52 -42 52 -80 0 -53 16 -80 49 -88 46 -10 27 -25 -31 -25
-38 0 -57 -6 -79 -24 -15 -13 -47 -27 -69 -31 -29 -5 -44 -13 -50 -29 -7 -18
-14 -21 -49 -18 -31 3 -41 8 -41 22 0 23 -17 36 -61 44 -21 4 -49 16 -63 27
-24 19 -27 19 -57 4 -20 -11 -41 -14 -58 -10 -25 7 -25 7 -5 15 17 7 23 20 28
64 4 31 16 66 27 80 27 34 21 57 -16 69 -40 13 -40 13 -21 42 21 32 36 32 66
0 28 -30 66 -32 100 -5 19 15 41 20 89 20 57 0 66 3 90 30 30 34 38 36 69 14z
m-428 -144 c0 -5 -2 -10 -4 -10 -3 0 -8 5 -11 10 -3 6 -1 10 4 10 6 0 11 -4
11 -10z m-27 -224 c9 -7 17 -21 17 -30 0 -30 -33 -14 -44 22 -8 25 1 28 27 8z
m132 -6 c3 -5 25 -15 48 -21 28 -9 36 -14 23 -17 -10 -2 -33 4 -51 14 -28 15
-38 16 -59 6 -29 -13 -36 1 -8 17 22 13 39 14 47 1z m439 1 c4 -5 -3 -7 -13
-4 -12 3 -43 -8 -75 -27 -31 -17 -64 -30 -73 -28 -12 3 -4 9 22 17 22 8 51 22
65 32 27 20 65 25 74 10z m-224 -106 c0 -11 -11 -15 -40 -15 -29 0 -40 4 -40
15 0 11 11 15 40 15 29 0 40 -4 40 -15z"/>
<path d="M5093 1350 c-46 -11 -96 -43 -113 -72 -24 -44 -5 -77 64 -113 51 -26
70 -30 139 -30 77 0 79 1 109 34 26 29 29 39 25 74 -12 88 -108 135 -224 107z
m97 -30 c12 -8 11 -10 -7 -10 -13 0 -23 5 -23 10 0 13 11 13 30 0z m-130 -24
c0 -3 -4 -8 -10 -11 -5 -3 -10 -1 -10 4 0 6 5 11 10 11 6 0 10 -2 10 -4z m153
-36 c19 0 67 -42 67 -59 0 -16 -55 -41 -90 -41 -38 0 -137 28 -145 40 -16 26
81 73 130 64 11 -2 28 -4 38 -4z"/>
<path d="M2005 1470 c-11 -17 25 -28 117 -35 116 -8 113 -8 113 7 0 18 -220
45 -230 28z"/>
<path d="M1910 1407 c0 -11 18 -18 68 -26 155 -24 207 -28 217 -20 18 17 -10
27 -110 38 -55 7 -117 14 -137 18 -30 4 -38 2 -38 -10z"/>
<path d="M2544 1159 c-10 -18 6 -26 61 -32 30 -3 103 -19 162 -36 270 -77 413
-105 413 -81 0 13 18 7 -215 64 -104 25 -221 55 -260 65 -90 23 -154 32 -161
20z"/>
</g>
</svg>
